<svg xmlns="http://www.w3.org/2000/svg" width="300" height="251" viewBox="0 0 300 251">
  <g id="bg-dots" transform="translate(-1352.871 -343)" opacity="0.6">
    <circle id="Ellipse_48" data-name="Ellipse 48" cx="5.5" cy="5.5" r="5.5" transform="translate(1352.871 343)" fill="#352b68"/>
    <circle id="Ellipse_48-2" data-name="Ellipse 48" cx="5.5" cy="5.5" r="5.5" transform="translate(1384.871 343)" fill="#352b68"/>
    <circle id="Ellipse_48-3" data-name="Ellipse 48" cx="5.5" cy="5.5" r="5.5" transform="translate(1416.871 343)" fill="#352b68"/>
    <ellipse id="Ellipse_48-4" data-name="Ellipse 48" cx="5" cy="5.5" rx="5" ry="5.5" transform="translate(1449.871 343)" fill="#352b68"/>
    <ellipse id="Ellipse_48-5" data-name="Ellipse 48" cx="5" cy="5.5" rx="5" ry="5.5" transform="translate(1481.871 343)" fill="#352b68"/>
    <ellipse id="Ellipse_48-6" data-name="Ellipse 48" cx="5" cy="5.5" rx="5" ry="5.5" transform="translate(1513.871 343)" fill="#352b68"/>
    <circle id="Ellipse_48-7" data-name="Ellipse 48" cx="5.5" cy="5.5" r="5.5" transform="translate(1545.871 343)" fill="#352b68"/>
    <circle id="Ellipse_48-8" data-name="Ellipse 48" cx="5.5" cy="5.5" r="5.5" transform="translate(1577.871 343)" fill="#352b68"/>
    <circle id="Ellipse_48-9" data-name="Ellipse 48" cx="5.5" cy="5.5" r="5.5" transform="translate(1609.871 343)" fill="#352b68"/>
    <circle id="Ellipse_48-10" data-name="Ellipse 48" cx="5.5" cy="5.5" r="5.5" transform="translate(1641.871 343)" fill="#352b68"/>
    <circle id="Ellipse_48-11" data-name="Ellipse 48" cx="5.5" cy="5.5" r="5.5" transform="translate(1352.871 377)" fill="#352b68"/>
    <circle id="Ellipse_48-12" data-name="Ellipse 48" cx="5.5" cy="5.5" r="5.5" transform="translate(1384.871 377)" fill="#352b68"/>
    <circle id="Ellipse_48-13" data-name="Ellipse 48" cx="5.5" cy="5.5" r="5.5" transform="translate(1416.871 377)" fill="#352b68"/>
    <ellipse id="Ellipse_48-14" data-name="Ellipse 48" cx="5" cy="5.5" rx="5" ry="5.5" transform="translate(1449.871 377)" fill="#352b68"/>
    <ellipse id="Ellipse_48-15" data-name="Ellipse 48" cx="5" cy="5.5" rx="5" ry="5.5" transform="translate(1481.871 377)" fill="#352b68"/>
    <ellipse id="Ellipse_48-16" data-name="Ellipse 48" cx="5" cy="5.5" rx="5" ry="5.5" transform="translate(1513.871 377)" fill="#352b68"/>
    <circle id="Ellipse_48-17" data-name="Ellipse 48" cx="5.5" cy="5.5" r="5.5" transform="translate(1545.871 377)" fill="#352b68"/>
    <circle id="Ellipse_48-18" data-name="Ellipse 48" cx="5.5" cy="5.5" r="5.5" transform="translate(1577.871 377)" fill="#352b68"/>
    <circle id="Ellipse_48-19" data-name="Ellipse 48" cx="5.5" cy="5.5" r="5.5" transform="translate(1609.871 377)" fill="#352b68"/>
    <circle id="Ellipse_48-20" data-name="Ellipse 48" cx="5.5" cy="5.5" r="5.5" transform="translate(1641.871 377)" fill="#352b68"/>
    <circle id="Ellipse_48-21" data-name="Ellipse 48" cx="5.5" cy="5.5" r="5.5" transform="translate(1352.871 412)" fill="#352b68"/>
    <circle id="Ellipse_48-22" data-name="Ellipse 48" cx="5.5" cy="5.5" r="5.5" transform="translate(1384.871 412)" fill="#352b68"/>
    <circle id="Ellipse_48-23" data-name="Ellipse 48" cx="5.5" cy="5.5" r="5.5" transform="translate(1416.871 412)" fill="#352b68"/>
    <ellipse id="Ellipse_48-24" data-name="Ellipse 48" cx="5" cy="5.5" rx="5" ry="5.5" transform="translate(1449.871 412)" fill="#352b68"/>
    <ellipse id="Ellipse_48-25" data-name="Ellipse 48" cx="5" cy="5.5" rx="5" ry="5.5" transform="translate(1481.871 412)" fill="#352b68"/>
    <ellipse id="Ellipse_48-26" data-name="Ellipse 48" cx="5" cy="5.5" rx="5" ry="5.5" transform="translate(1513.871 412)" fill="#352b68"/>
    <circle id="Ellipse_48-27" data-name="Ellipse 48" cx="5.5" cy="5.5" r="5.5" transform="translate(1545.871 412)" fill="#352b68"/>
    <circle id="Ellipse_48-28" data-name="Ellipse 48" cx="5.5" cy="5.5" r="5.5" transform="translate(1577.871 412)" fill="#352b68"/>
    <circle id="Ellipse_48-29" data-name="Ellipse 48" cx="5.5" cy="5.5" r="5.5" transform="translate(1609.871 412)" fill="#352b68"/>
    <circle id="Ellipse_48-30" data-name="Ellipse 48" cx="5.5" cy="5.5" r="5.5" transform="translate(1641.871 412)" fill="#352b68"/>
    <circle id="Ellipse_48-31" data-name="Ellipse 48" cx="5.5" cy="5.5" r="5.5" transform="translate(1352.871 446)" fill="#352b68"/>
    <circle id="Ellipse_48-32" data-name="Ellipse 48" cx="5.5" cy="5.5" r="5.5" transform="translate(1384.871 446)" fill="#352b68"/>
    <circle id="Ellipse_48-33" data-name="Ellipse 48" cx="5.5" cy="5.5" r="5.5" transform="translate(1416.871 446)" fill="#352b68"/>
    <ellipse id="Ellipse_48-34" data-name="Ellipse 48" cx="5" cy="5.5" rx="5" ry="5.5" transform="translate(1449.871 446)" fill="#352b68"/>
    <ellipse id="Ellipse_48-35" data-name="Ellipse 48" cx="5" cy="5.5" rx="5" ry="5.5" transform="translate(1481.871 446)" fill="#352b68"/>
    <ellipse id="Ellipse_48-36" data-name="Ellipse 48" cx="5" cy="5.5" rx="5" ry="5.5" transform="translate(1513.871 446)" fill="#352b68"/>
    <circle id="Ellipse_48-37" data-name="Ellipse 48" cx="5.5" cy="5.5" r="5.5" transform="translate(1545.871 446)" fill="#352b68"/>
    <circle id="Ellipse_48-38" data-name="Ellipse 48" cx="5.5" cy="5.5" r="5.5" transform="translate(1577.871 446)" fill="#352b68"/>
    <circle id="Ellipse_48-39" data-name="Ellipse 48" cx="5.5" cy="5.5" r="5.5" transform="translate(1609.871 446)" fill="#352b68"/>
    <circle id="Ellipse_48-40" data-name="Ellipse 48" cx="5.5" cy="5.5" r="5.5" transform="translate(1641.871 446)" fill="#352b68"/>
    <circle id="Ellipse_48-41" data-name="Ellipse 48" cx="5.5" cy="5.5" r="5.5" transform="translate(1352.871 480)" fill="#352b68"/>
    <circle id="Ellipse_48-42" data-name="Ellipse 48" cx="5.5" cy="5.5" r="5.5" transform="translate(1384.871 480)" fill="#352b68"/>
    <circle id="Ellipse_48-43" data-name="Ellipse 48" cx="5.5" cy="5.5" r="5.5" transform="translate(1416.871 480)" fill="#352b68"/>
    <ellipse id="Ellipse_48-44" data-name="Ellipse 48" cx="5" cy="5.5" rx="5" ry="5.5" transform="translate(1449.871 480)" fill="#352b68"/>
    <ellipse id="Ellipse_48-45" data-name="Ellipse 48" cx="5" cy="5.5" rx="5" ry="5.5" transform="translate(1481.871 480)" fill="#352b68"/>
    <ellipse id="Ellipse_48-46" data-name="Ellipse 48" cx="5" cy="5.5" rx="5" ry="5.5" transform="translate(1513.871 480)" fill="#352b68"/>
    <circle id="Ellipse_48-47" data-name="Ellipse 48" cx="5.5" cy="5.5" r="5.5" transform="translate(1545.871 480)" fill="#352b68"/>
    <circle id="Ellipse_48-48" data-name="Ellipse 48" cx="5.5" cy="5.5" r="5.5" transform="translate(1577.871 480)" fill="#352b68"/>
    <circle id="Ellipse_48-49" data-name="Ellipse 48" cx="5.5" cy="5.5" r="5.5" transform="translate(1609.871 480)" fill="#352b68"/>
    <circle id="Ellipse_48-50" data-name="Ellipse 48" cx="5.5" cy="5.5" r="5.5" transform="translate(1641.871 480)" fill="#352b68"/>
    <circle id="Ellipse_48-51" data-name="Ellipse 48" cx="5.5" cy="5.5" r="5.5" transform="translate(1352.871 514)" fill="#352b68"/>
    <circle id="Ellipse_48-52" data-name="Ellipse 48" cx="5.5" cy="5.5" r="5.5" transform="translate(1384.871 514)" fill="#352b68"/>
    <circle id="Ellipse_48-53" data-name="Ellipse 48" cx="5.5" cy="5.5" r="5.5" transform="translate(1416.871 514)" fill="#352b68"/>
    <ellipse id="Ellipse_48-54" data-name="Ellipse 48" cx="5" cy="5.5" rx="5" ry="5.5" transform="translate(1449.871 514)" fill="#352b68"/>
    <ellipse id="Ellipse_48-55" data-name="Ellipse 48" cx="5" cy="5.5" rx="5" ry="5.5" transform="translate(1481.871 514)" fill="#352b68"/>
    <ellipse id="Ellipse_48-56" data-name="Ellipse 48" cx="5" cy="5.5" rx="5" ry="5.5" transform="translate(1513.871 514)" fill="#352b68"/>
    <circle id="Ellipse_48-57" data-name="Ellipse 48" cx="5.5" cy="5.5" r="5.5" transform="translate(1545.871 514)" fill="#352b68"/>
    <circle id="Ellipse_48-58" data-name="Ellipse 48" cx="5.5" cy="5.5" r="5.5" transform="translate(1577.871 514)" fill="#352b68"/>
    <circle id="Ellipse_48-59" data-name="Ellipse 48" cx="5.5" cy="5.5" r="5.5" transform="translate(1609.871 514)" fill="#352b68"/>
    <circle id="Ellipse_48-60" data-name="Ellipse 48" cx="5.5" cy="5.5" r="5.5" transform="translate(1641.871 514)" fill="#352b68"/>
    <circle id="Ellipse_48-61" data-name="Ellipse 48" cx="5.5" cy="5.5" r="5.5" transform="translate(1352.871 549)" fill="#352b68"/>
    <circle id="Ellipse_48-62" data-name="Ellipse 48" cx="5.5" cy="5.5" r="5.5" transform="translate(1384.871 549)" fill="#352b68"/>
    <circle id="Ellipse_48-63" data-name="Ellipse 48" cx="5.5" cy="5.5" r="5.5" transform="translate(1416.871 549)" fill="#352b68"/>
    <ellipse id="Ellipse_48-64" data-name="Ellipse 48" cx="5" cy="5.5" rx="5" ry="5.5" transform="translate(1449.871 549)" fill="#352b68"/>
    <ellipse id="Ellipse_48-65" data-name="Ellipse 48" cx="5" cy="5.5" rx="5" ry="5.5" transform="translate(1481.871 549)" fill="#352b68"/>
    <ellipse id="Ellipse_48-66" data-name="Ellipse 48" cx="5" cy="5.5" rx="5" ry="5.5" transform="translate(1513.871 549)" fill="#352b68"/>
    <circle id="Ellipse_48-67" data-name="Ellipse 48" cx="5.5" cy="5.5" r="5.5" transform="translate(1545.871 549)" fill="#352b68"/>
    <circle id="Ellipse_48-68" data-name="Ellipse 48" cx="5.5" cy="5.5" r="5.5" transform="translate(1577.871 549)" fill="#352b68"/>
    <circle id="Ellipse_48-69" data-name="Ellipse 48" cx="5.5" cy="5.5" r="5.5" transform="translate(1609.871 549)" fill="#352b68"/>
    <circle id="Ellipse_48-70" data-name="Ellipse 48" cx="5.5" cy="5.5" r="5.5" transform="translate(1641.871 549)" fill="#352b68"/>
    <circle id="Ellipse_48-71" data-name="Ellipse 48" cx="5.5" cy="5.5" r="5.5" transform="translate(1352.871 583)" fill="#352b68"/>
    <circle id="Ellipse_48-72" data-name="Ellipse 48" cx="5.5" cy="5.5" r="5.5" transform="translate(1384.871 583)" fill="#352b68"/>
    <circle id="Ellipse_48-73" data-name="Ellipse 48" cx="5.5" cy="5.5" r="5.5" transform="translate(1416.871 583)" fill="#352b68"/>
    <ellipse id="Ellipse_48-74" data-name="Ellipse 48" cx="5" cy="5.5" rx="5" ry="5.5" transform="translate(1449.871 583)" fill="#352b68"/>
    <ellipse id="Ellipse_48-75" data-name="Ellipse 48" cx="5" cy="5.5" rx="5" ry="5.5" transform="translate(1481.871 583)" fill="#352b68"/>
    <ellipse id="Ellipse_48-76" data-name="Ellipse 48" cx="5" cy="5.5" rx="5" ry="5.5" transform="translate(1513.871 583)" fill="#352b68"/>
    <circle id="Ellipse_48-77" data-name="Ellipse 48" cx="5.5" cy="5.5" r="5.5" transform="translate(1545.871 583)" fill="#352b68"/>
    <circle id="Ellipse_48-78" data-name="Ellipse 48" cx="5.5" cy="5.5" r="5.5" transform="translate(1577.871 583)" fill="#352b68"/>
    <circle id="Ellipse_48-79" data-name="Ellipse 48" cx="5.5" cy="5.5" r="5.5" transform="translate(1609.871 583)" fill="#352b68"/>
    <circle id="Ellipse_48-80" data-name="Ellipse 48" cx="5.5" cy="5.5" r="5.5" transform="translate(1641.871 583)" fill="#352b68"/>
  </g>
</svg>
